<svg width="101" height="101" viewBox="0 0 101 101" fill="none" xmlns="http://www.w3.org/2000/svg">
<path d="M75.718 0H25.282C11.3191 0 0 11.3191 0 25.282V75.718C0 89.6809 11.3191 101 25.282 101H75.718C89.6809 101 101 89.6809 101 75.718V25.282C101 11.3191 89.6809 0 75.718 0Z" fill="#015351"/>
<path d="M51.974 77.669C50.702 76.9357 49.7643 75.347 49.161 72.903C48.5577 70.459 47.816 69.0113 46.936 68.56C45.0491 67.8788 43.0765 67.4641 41.075 67.328C38.955 67.1274 36.9169 66.4086 35.14 65.235C33.5107 64.0083 32.2993 63.061 31.506 62.393C30.2591 61.3601 29.1059 60.219 28.06 58.983C27.0713 57.2235 26.2773 55.3615 25.692 53.43C25.35 52.5094 25.135 51.5466 25.053 50.568C24.829 47.9587 25.5893 44.871 27.334 41.305C28.3864 39.7898 29.651 38.4336 31.089 37.278L35.517 33.745C36.454 32.7367 37.5954 31.9399 38.865 31.408C41.3457 30.302 42.6883 29.714 42.893 29.644C44.1399 28.8275 45.5423 28.278 47.012 28.03C47.9438 27.9477 48.8769 28.1724 49.669 28.67C50.2797 28.9884 50.7995 29.4566 51.1798 30.0309C51.5601 30.6051 51.7882 31.2665 51.843 31.953C51.891 32.2485 51.8759 32.5508 51.7987 32.84C51.7214 33.1292 51.5838 33.3988 51.3949 33.631C51.2059 33.8632 50.97 34.0528 50.7025 34.1872C50.435 34.3217 50.1421 34.3979 49.843 34.411C54.527 41.8417 57.0793 48.0083 57.5 52.911C57.7308 55.0305 57.5353 57.1748 56.9249 59.2176C56.3146 61.2604 55.3017 63.1605 53.946 64.806C55.4547 68.3033 56.2693 70.7567 56.39 72.166C56.4937 73.2662 56.3743 74.376 56.039 75.429C55.9659 76.1176 55.6424 76.7553 55.1298 77.2208C54.6172 77.6864 53.9514 77.9473 53.259 77.954C53.189 77.96 53.1197 77.963 53.051 77.963C52.6719 77.9651 52.2995 77.8634 51.974 77.669ZM40.223 38.069C38.0837 38.2523 36.2063 39.806 34.591 42.73C33.0793 45.1503 32.4469 48.0173 32.8 50.849C33.2727 53.9097 35.0363 56.702 38.091 59.226C40.1917 61.0433 41.7117 61.9117 42.651 61.831C42.9158 61.8053 43.1726 61.7258 43.4056 61.5973C43.6386 61.4689 43.8429 61.2942 44.006 61.084C44.1333 61.0495 44.2449 60.9722 44.322 60.8651C44.399 60.758 44.4368 60.6277 44.429 60.496C44.3226 60.0761 44.1435 59.6782 43.9 59.32C43.6412 58.94 43.4576 58.514 43.359 58.065C43.1803 55.9777 43.723 54.6443 44.987 54.065C45.3484 53.8846 45.7393 53.7708 46.141 53.729C47.237 53.635 48.6913 54.3513 50.504 55.878C50.7551 54.4415 50.8152 52.9782 50.683 51.526C50.4545 48.7875 49.565 46.1452 48.091 43.826C46.7311 41.5805 44.7892 39.7447 42.471 38.513C41.8897 38.2153 41.2461 38.0597 40.593 38.059C40.469 38.0563 40.3453 38.0603 40.222 38.071L40.223 38.069ZM61.223 65.969C61.2169 65.4981 61.3141 65.0317 61.5076 64.6023C61.7011 64.173 61.9862 63.7913 62.343 63.484C63.0662 62.8187 64.0175 62.4571 65 62.474C65.8023 62.4621 66.5873 62.7074 67.24 63.174C67.6594 63.4324 68.1484 63.5546 68.64 63.524C68.5611 64.3911 68.6201 65.2653 68.815 66.114C68.9749 66.8519 69.0802 67.6006 69.13 68.354C69.1518 68.8885 69.0179 69.4178 68.7445 69.8776C68.4711 70.3374 68.07 70.7079 67.59 70.944C66.9696 71.3699 66.2419 71.6125 65.49 71.644C63.4367 71.6433 62.0133 69.753 61.22 65.973L61.223 65.969ZM66.262 59.95C65.6776 59.7645 65.1729 59.387 64.8299 58.8788C64.4868 58.3706 64.3255 57.7614 64.372 57.15C64.4003 56.4659 64.494 55.7862 64.652 55.12C64.8188 54.4564 64.9352 53.7811 65 53.1C66.3067 43.022 68.0097 34.9033 70.109 28.744C70.3128 28.1238 70.722 27.5916 71.2691 27.2352C71.8161 26.8789 72.4683 26.7197 73.118 26.784C73.903 26.7688 74.6729 27.0015 75.318 27.449C75.5995 27.6129 75.8258 27.8569 75.9683 28.1498C76.1107 28.4427 76.1628 28.7714 76.118 29.094C75.5544 34.1767 74.5948 39.2077 73.248 44.141C71.8762 49.1661 70.7588 54.2573 69.9 59.395C69.9231 59.5566 69.9082 59.7214 69.8565 59.8763C69.8049 60.0312 69.7179 60.1719 69.6024 60.2874C69.487 60.4029 69.3462 60.4899 69.1913 60.5415C69.0364 60.5932 68.8716 60.608 68.71 60.585C67.8631 60.5161 67.0342 60.3031 66.259 59.955L66.262 59.95Z" fill="#FEBA36"/>
</svg>
